<?xml version="1.0" standalone="no"?>
<!DOCTYPE svg PUBLIC "-//W3C//DTD SVG 20010904//EN"
 "http://www.w3.org/TR/2001/REC-SVG-20010904/DTD/svg10.dtd">
<svg version="1.0" xmlns="http://www.w3.org/2000/svg"
 width="700.000000pt" height="700.000000pt" viewBox="0 0 700.000000 700.000000"
 preserveAspectRatio="xMidYMid meet">
<metadata>
Created by potrace 1.14, written by Peter Selinger 2001-2017
</metadata>
<g transform="translate(0.000000,700.000000) scale(0.100000,-0.100000)"
fill="#000000" stroke="none">
<path d="M4798 6995 c-2 -2 -39 -5 -83 -9 -44 -3 -107 -10 -140 -16 -33 -6
-76 -13 -95 -16 -77 -12 -241 -59 -345 -99 -372 -143 -675 -377 -914 -704 -33
-47 -61 -89 -61 -94 0 -6 -6 -18 -14 -26 -66 -77 -184 -385 -215 -566 -6 -33
-13 -69 -15 -80 -27 -142 -27 -395 0 -561 l6 -41 62 -11 c101 -18 114 -22 179
-46 182 -68 330 -169 503 -341 345 -344 568 -752 678 -1236 5 -21 17 -30 63
-47 124 -43 251 -73 378 -88 109 -13 334 -7 431 10 22 4 111 17 119 17 2 1 28
7 57 15 29 7 56 10 59 6 4 -4 17 -38 29 -77 31 -97 55 -152 120 -281 218 -428
558 -630 1093 -649 73 -3 127 -1 125 4 -2 7 -102 120 -173 195 -87 93 -197
221 -221 256 -144 214 -205 537 -170 904 7 67 8 71 54 110 278 242 485 548
592 877 17 50 32 100 35 112 2 12 9 40 14 62 11 46 18 80 27 144 4 25 9 55 11
66 3 11 7 121 8 245 3 211 -9 353 -38 475 -88 364 -237 632 -492 890 -209 210
-453 368 -725 468 -92 34 -253 80 -315 90 -81 13 -165 26 -210 32 -49 7 -411
15 -417 10z"/>
<path d="M1821 4799 c-519 -78 -937 -309 -1277 -706 -231 -271 -392 -637 -429
-973 -3 -30 -8 -72 -11 -92 -8 -54 -8 -300 0 -388 7 -73 10 -94 21 -162 3 -18
8 -46 11 -63 21 -132 111 -384 185 -522 40 -75 145 -243 158 -253 4 -3 14 -16
22 -30 9 -14 48 -62 87 -107 l71 -81 -4 -164 c-5 -243 -44 -427 -127 -593
-102 -205 -238 -330 -426 -391 l-94 -30 98 -66 c198 -131 327 -178 486 -173
116 4 154 10 242 42 171 62 301 187 393 380 38 79 84 210 98 278 17 83 25 131
31 172 3 26 7 49 9 51 2 2 43 -11 91 -28 106 -38 167 -55 294 -81 138 -28 211
-34 435 -33 159 0 226 5 327 23 115 20 272 59 323 80 11 5 47 19 80 31 310
119 607 344 868 660 17 20 126 180 154 225 100 159 213 467 238 645 4 24 8 47
10 51 18 28 26 419 12 564 -19 206 -88 447 -179 632 -115 233 -254 411 -487
621 -39 35 -178 144 -196 152 -5 3 -35 21 -65 41 -113 74 -378 199 -422 199
-8 0 -18 4 -23 9 -14 12 -222 61 -325 77 -25 3 -54 9 -65 11 -11 3 -126 7
-255 8 -190 3 -259 -1 -359 -16z"/>
</g>
</svg>
